Coordinates
version=1
nRows=60
nColumns=12
inDegrees=yes

Units are S.I. units (second, meters, Newtons, ...)
Angles are in degrees

endheader
time	SC_y	SC_z	SC_x	AC_y	AC_z	AC_x	GH_y	GH_z	GH_yy	EL_x	PS_y
       0.0               -13.7          14.63          12.43          45.84           2.71          4.684         -151.3          36.97         -15.81          86.01          106.8
  0.008587               -13.7          14.63          12.43          45.84          2.707          4.685         -151.3          36.97         -15.82          86.01          106.8
   0.01717              -13.71          14.64          12.43          45.84          2.704          4.686         -151.2          36.98         -15.83          86.01          106.8
   0.02576              -13.72          14.64          12.42          45.85          2.701          4.687         -151.2          36.98         -15.84          86.01          106.8
   0.03435              -13.73          14.64          12.42          45.85          2.697          4.689         -151.2          36.98         -15.86          86.01          106.8
   0.04294              -13.74          14.65          12.42          45.85          2.693           4.69         -151.1          36.98         -15.87          86.01          106.8
   0.05152              -13.74          14.65          12.42          45.86          2.689          4.692         -151.1          36.99         -15.88          86.01          106.8
   0.06011              -13.75          14.66          12.42          45.86          2.685          4.693         -151.0          36.99          -15.9          86.01          106.8
    0.0687              -13.76          14.66          12.42          45.86          2.681          4.695         -151.0          36.99         -15.91          86.01          106.8
   0.07729              -13.78          14.67          12.42          45.87          2.676          4.697         -150.9           37.0         -15.93          86.02          106.8
   0.08587              -13.79          14.67          12.41          45.87          2.671          4.699         -150.9           37.0         -15.94          86.02          106.8
   0.09446               -13.8          14.68          12.41          45.88          2.665          4.701         -150.8          37.01         -15.96          86.02          106.8
     0.103              -13.82          14.68          12.41          45.88          2.659          4.703         -150.8          37.01         -15.98          86.02          106.8
    0.1116              -13.83          14.69          12.41          45.89          2.652          4.706         -150.7          37.02         -16.01          86.02          106.8
    0.1202              -13.85           14.7           12.4          45.89          2.645          4.708         -150.6          37.02         -16.03          86.03          106.8
    0.1288              -13.86          14.71           12.4           45.9          2.638          4.711         -150.5          37.03         -16.06          86.03          106.8
    0.1374              -13.88          14.72           12.4          45.91          2.629          4.715         -150.5          37.04         -16.08          86.03          106.8
     0.146               -13.9          14.73          12.39          45.91           2.62          4.718         -150.4          37.04         -16.11          86.03          106.8
    0.1546              -13.93          14.74          12.39          45.92           2.61          4.722         -150.3          37.05         -16.15          86.04          106.8
    0.1632              -13.95          14.75          12.39          45.93            2.6          4.726         -150.2          37.06         -16.18          86.04          106.8
    0.1717              -13.98          14.76          12.38          45.94          2.588          4.731         -150.0          37.07         -16.22          86.04          106.8
    0.1803              -14.01          14.78          12.38          45.95          2.575          4.736         -149.9          37.08         -16.27          86.05          106.8
    0.1889              -14.04          14.79          12.37          45.96           2.56          4.741         -149.7          37.09         -16.32          86.05          106.8
    0.1975              -14.08          14.81          12.37          45.98          2.544          4.747         -149.6           37.1         -16.37          86.06          106.8
    0.2061              -14.12          14.83          12.36          45.99          2.526          4.754         -149.4          37.12         -16.43          86.06          106.8
    0.2147              -14.17          14.85          12.35          46.01          2.506          4.762         -149.2          37.13          -16.5          86.07          106.8
    0.2233              -14.22          14.87          12.34          46.03          2.484           4.77         -148.9          37.15         -16.57          86.07          106.8
    0.2319              -14.28           14.9          12.33          46.05          2.459           4.78         -148.7          37.17         -16.66          86.08          106.8
    0.2404              -14.35          14.93          12.32          46.07          2.431          4.791         -148.4           37.2         -16.75          86.09          106.8
     0.249              -14.42          14.96          12.31           46.1          2.399          4.803         -148.1          37.22         -16.86           86.1          106.9
    0.2576              -14.51           15.0           12.3          46.13          2.362          4.817         -147.7          37.25         -16.98          86.11          106.9
    0.2662               -14.6          15.05          12.28          46.16           2.32          4.833         -147.2          37.29         -17.13          86.12          106.9
    0.2748              -14.72           15.1          12.26          46.21          2.271          4.852         -146.7          37.32         -17.29          86.14          106.9
    0.2834              -14.85          15.16          12.24          46.25          2.215          4.874         -146.1          37.37         -17.48          86.16          106.9
     0.292               -15.0          15.23          12.22          46.31          2.148          4.899         -145.4          37.42          -17.7          86.18          106.9
    0.3006              -15.18          15.31          12.19          46.37           2.07          4.929         -144.6          37.49         -17.97           86.2          106.9
    0.3091               -15.4          15.41          12.15          46.45          1.978          4.964         -143.7          37.56         -18.28          86.23          107.0
    0.3177              -15.66          15.53          12.11          46.54          1.867          5.007         -142.5          37.65         -18.65          86.26          107.0
    0.3263              -15.97          15.68          12.06          46.66          1.733          5.058         -141.1          37.76          -19.1           86.3          107.0
    0.3349              -16.35          15.85           12.0          46.79          1.568          5.121         -139.4          37.89         -19.66          86.35          107.1
    0.3435              -16.82          16.07          11.92          46.96          1.366          5.199         -137.3          38.06         -20.34          86.41          107.1
    0.3521              -17.41          16.34          11.83          47.17          1.113          5.296         -134.7          38.26         -21.19          86.49          107.2
    0.3607              -18.15          16.68          11.71          47.44         0.7953          5.418         -131.3          38.52         -22.26          86.58          107.3
    0.3693              -19.09          17.11          11.55          47.78         0.3909          5.573         -127.1          38.84         -23.62          86.71          107.4
    0.3778              -20.29          17.67          11.36          48.21        -0.1268          5.771         -121.7          39.26         -25.36          86.86          107.6
    0.3864              -21.84          18.38          11.11          48.77         -0.791          6.026         -114.8           39.8          -27.6          87.06          107.7
     0.395              -23.81          19.28          10.79          49.48          -1.64          6.351         -106.0          40.48         -30.46          87.32          108.0
    0.4036              -26.29          20.42          10.38          50.37         -2.706           6.76         -94.85          41.34         -34.05          87.64          108.3
    0.4122              -29.31          21.82          9.891          51.46         -4.007          7.258          -81.3          42.39         -38.43          88.03          108.6
    0.4208              -32.81          23.43          9.322          52.72         -5.514          7.836         -65.59          43.61          -43.5          88.49          109.1
    0.4294              -36.61          25.17          8.705          54.09         -7.145          8.462         -48.58          44.93          -49.0          88.98          109.5
     0.438               -40.4          26.92          8.089          55.45         -8.777          9.087         -31.58          46.25         -54.49          89.47          110.0
    0.4465               -43.9          28.53          7.519          56.72         -10.28          9.665         -15.87          47.46         -59.56          89.93          110.4
    0.4551              -46.93          29.92          7.028           57.8         -11.58          10.16         -2.319          48.51         -63.94          90.32          110.8
    0.4637              -49.41          31.06          6.625           58.7         -12.65          10.57          8.801          49.38         -67.54          90.64          111.0
    0.4723              -51.38          31.97          6.304          59.41          -13.5           10.9          17.64          50.06         -70.39           90.9          111.3
    0.4809              -52.92          32.68          6.053          59.96         -14.16          11.15          24.57           50.6         -72.63           91.1          111.5
    0.4895              -54.13          33.24          5.858           60.4         -14.68          11.35          29.96          51.02         -74.37          91.26          111.6
    0.4981              -55.07          33.67          5.705          60.74         -15.09          11.51          34.18          51.34         -75.73          91.38          111.7
    0.5067              -55.81          34.01          5.585           61.0          -15.4          11.63          37.49           51.6          -76.8          91.48          111.8
